<svg aria-hidden="true" style="width:0;height:0;position:absolute;overflow:hidden" xmlns="http://www.w3.org/2000/svg"><defs><symbol id="icon-iconmonstr-arrow-down-circle-thin" viewBox="0 0 32 32"><path d="M32 16c0 8.831-7.169 16-16 16S0 24.831 0 16 7.169 0 16 0s16 7.169 16 16zm-1.333 0c0-8.095-6.572-14.667-14.667-14.667S1.333 7.905 1.333 16 7.905 30.667 16 30.667 30.667 24.095 30.667 16zm-15.334 6.437V6.666h1.333v15.768l4.996-6.139 1.004.888-6.667 8.149-6.667-8.135.983-.905 5.017 6.144z"/></symbol><symbol id="icon-paint-format" viewBox="0 0 32 32"><path d="M32 18V6h-6V4c0-1.1-.9-2-2-2H2C.9 2 0 2.9 0 4v6c0 1.1.9 2 2 2h22c1.1 0 2-.9 2-2V8h4v8H12v4h-1a1 1 0 0 0-1 1v10a1 1 0 0 0 1 1h4a1 1 0 0 0 1-1V21a1 1 0 0 0-1-1h-1v-2h18zM24 6H2V4h22v2z"/></symbol><symbol id="telegram_icon" viewBox="0 0 32 32"><path d="M16.546 14.329c-1.909 1.756-3.772 3.419-3.772 3.419a.624.624 0 1 0 .832.932s4.88-4.356 6.964-6.44c.318-.318.414-.561.431-.662a.623.623 0 0 0-.176-.57.646.646 0 0 0-.453-.199c-.106-.004-.342.037-.659.186-1.816.854-9.039 5.666-9.039 5.666a.625.625 0 0 0 .693 1.04s2.688-1.793 5.178-3.372z"/><path d="M16 1.375C7.928 1.375 1.375 7.928 1.375 16S7.928 30.625 16 30.625 30.625 24.072 30.625 16 24.072 1.375 16 1.375zm0 1.25c7.382 0 13.375 5.993 13.375 13.375S23.382 29.375 16 29.375 2.625 23.382 2.625 16 8.618 2.625 16 2.625z"/><path d="m10.52 17.676 1.337 4.35.016.047c.142.357.285.565.387.663a.712.712 0 0 0 .531.215c.221-.007.577-.138.718-.662a.65.65 0 0 0 .02-.117l.202-2.784 5.282 3.885c.543.412 1.031.499 1.4.387.381-.116.75-.466.925-1.21l.003-.013 2.607-12.286c.155-.654.068-1.143-.145-1.429-.247-.332-.713-.558-1.506-.344a.465.465 0 0 0-.063.021l-15.315 5.94a.542.542 0 0 0-.069.032c-.726.39-.887.835-.889 1.123-.003.388.27.764.732.95a.3.3 0 0 0 .042.015l3.783 1.217zm12.255-8.12c-.006.089-.018.21-.042.312l-.004.016-2.607 12.284a1.507 1.507 0 0 1-.095.259 1.66 1.66 0 0 1-.259-.153l-.009-.007-6.198-4.558a.625.625 0 0 0-.993.458l-.113 1.548-.836-2.719a.628.628 0 0 0-.406-.412L7.59 15.418l15.063-5.842c.041-.009.084-.016.122-.021z"/><path d="m13.202 22.796 2.717-2.346a.625.625 0 0 0-.817-.946l-2.717 2.346a.625.625 0 0 0 .816.946z"/></symbol><symbol id="icon-instagram" viewBox="0 0 32 32"><path d="M16 2.881c4.275 0 4.781.019 6.462.094 1.563.069 2.406.331 2.969.55a4.952 4.952 0 0 1 1.837 1.194 5.015 5.015 0 0 1 1.2 1.838c.219.563.481 1.412.55 2.969.075 1.688.094 2.194.094 6.463s-.019 4.781-.094 6.463c-.069 1.563-.331 2.406-.55 2.969a4.94 4.94 0 0 1-1.194 1.837 5.02 5.02 0 0 1-1.837 1.2c-.563.219-1.413.481-2.969.55-1.688.075-2.194.094-6.463.094s-4.781-.019-6.463-.094c-1.563-.069-2.406-.331-2.969-.55a4.952 4.952 0 0 1-1.838-1.194 5.02 5.02 0 0 1-1.2-1.837c-.219-.563-.481-1.413-.55-2.969-.075-1.688-.094-2.194-.094-6.463s.019-4.781.094-6.463c.069-1.563.331-2.406.55-2.969a4.964 4.964 0 0 1 1.194-1.838 5.015 5.015 0 0 1 1.838-1.2c.563-.219 1.412-.481 2.969-.55 1.681-.075 2.188-.094 6.463-.094zM16 0c-4.344 0-4.887.019-6.594.094-1.7.075-2.869.35-3.881.744-1.056.412-1.95.956-2.837 1.85a7.833 7.833 0 0 0-1.85 2.831C.444 6.538.169 7.7.094 9.4.019 11.113 0 11.656 0 16s.019 4.887.094 6.594c.075 1.7.35 2.869.744 3.881.413 1.056.956 1.95 1.85 2.837a7.82 7.82 0 0 0 2.831 1.844c1.019.394 2.181.669 3.881.744 1.706.075 2.25.094 6.594.094s4.888-.019 6.594-.094c1.7-.075 2.869-.35 3.881-.744 1.05-.406 1.944-.956 2.831-1.844s1.438-1.781 1.844-2.831c.394-1.019.669-2.181.744-3.881.075-1.706.094-2.25.094-6.594s-.019-4.887-.094-6.594c-.075-1.7-.35-2.869-.744-3.881a7.506 7.506 0 0 0-1.831-2.844A7.82 7.82 0 0 0 26.482.843C25.463.449 24.301.174 22.601.099c-1.712-.081-2.256-.1-6.6-.1z"/><path d="M16 7.781c-4.537 0-8.219 3.681-8.219 8.219s3.681 8.219 8.219 8.219 8.219-3.681 8.219-8.219A8.221 8.221 0 0 0 16 7.781zm0 13.55a5.331 5.331 0 1 1 0-10.663 5.331 5.331 0 0 1 0 10.663zM26.462 7.456a1.919 1.919 0 1 1-3.838 0 1.919 1.919 0 0 1 3.838 0z"/></symbol><symbol id="icon-dot-single" viewBox="0 0 20 20"><path d="M7.8 10a2.2 2.2 0 0 0 4.4 0 2.2 2.2 0 0 0-4.4 0z"/></symbol><symbol id="2"><svg width="357" height="299" fill="none" xmlns="http://www.w3.org/2000/svg"><path opacity=".1" d="M.587 212.032C1.783 173.445 30.492 130.486 76.06 92.21 121.618 53.943 183.972 20.407 252.324.69c68.351-19.72 129.733-21.88 173.719-9.443 43.995 12.439 70.535 39.459 69.339 78.046-1.196 38.587-29.906 81.546-75.473 119.822-45.558 38.268-107.913 71.804-176.264 91.522-68.351 19.718-129.733 21.877-173.72 9.441C25.932 277.64-.608 250.619.588 212.032Z" stroke="#1C1C1C" stroke-width=".5"/></svg></symbol></defs></svg>