<svg width="30" height="30" viewBox="0 0 30 30" fill="none" xmlns="http://www.w3.org/2000/svg">
<g clip-path="url(#clip0_2_1077)">
<path d="M7 0.75H23C26.4518 0.75 29.25 3.54822 29.25 7V23C29.25 26.4518 26.4518 29.25 23 29.25H7C3.54822 29.25 0.75 26.4518 0.75 23V7C0.75 3.54822 3.54822 0.75 7 0.75Z" stroke="#E8E8E8" stroke-width="0.5"/>
<path d="M20.6786 15C20.6786 18.1362 18.1362 20.6786 15 20.6786C11.8638 20.6786 9.32144 18.1362 9.32144 15C9.32144 11.8638 11.8638 9.32143 15 9.32143C18.1362 9.32143 20.6786 11.8638 20.6786 15Z" stroke="#E8E8E8" stroke-width="0.5"/>
<path d="M23.5 7.35714C24.0523 7.35714 24.5 6.90942 24.5 6.35714C24.5 5.80485 24.0523 5.35714 23.5 5.35714C22.9477 5.35714 22.5 5.80485 22.5 6.35714C22.5 6.90942 22.9477 7.35714 23.5 7.35714Z" fill="#E8E8E8"/>
</g>
<defs>
<clipPath id="clip0_2_1077">
<rect width="30" height="30" fill="white"/>
</clipPath>
</defs>
</svg>
