<svg width="30" height="30" viewBox="0 0 30 30" fill="none" xmlns="http://www.w3.org/2000/svg">
<g clip-path="url(#clip0_2_1081)">
<path d="M22.5 0H7.5C3.35786 0 0 3.35786 0 7.5V22.5C0 26.6421 3.35786 30 7.5 30H22.5C26.6421 30 30 26.6421 30 22.5V7.5C30 3.35786 26.6421 0 22.5 0Z" fill="#E8E8E8"/>
<path d="M15 21.4286C18.5504 21.4286 21.4286 18.5504 21.4286 15C21.4286 11.4496 18.5504 8.57143 15 8.57143C11.4496 8.57143 8.57144 11.4496 8.57144 15C8.57144 18.5504 11.4496 21.4286 15 21.4286Z" fill="#1C1C1C"/>
<path d="M23.5714 7.5C24.1632 7.5 24.6429 7.02031 24.6429 6.42857C24.6429 5.83684 24.1632 5.35714 23.5714 5.35714C22.9797 5.35714 22.5 5.83684 22.5 6.42857C22.5 7.02031 22.9797 7.5 23.5714 7.5Z" fill="#1C1C1C"/>
</g>
<defs>
<clipPath id="clip0_2_1081">
<rect width="30" height="30" fill="white"/>
</clipPath>
</defs>
</svg>
