<svg width="30" height="30" viewBox="0 0 30 30" fill="none" xmlns="http://www.w3.org/2000/svg">
<path d="M29.7059 15C29.7059 18.9002 28.1565 22.6407 25.3986 25.3986C22.6407 28.1565 18.9002 29.7059 15 29.7059C11.0998 29.7059 7.35927 28.1565 4.60139 25.3986C1.84349 22.6407 0.294128 18.9002 0.294128 15C0.294128 11.0998 1.84349 7.35926 4.60139 4.60138C7.35927 1.84348 11.0998 0.294117 15 0.294117C18.9002 0.294117 22.6407 1.84348 25.3986 4.60138C28.1565 7.35926 29.7059 11.0998 29.7059 15ZM15.5276 11.1507C14.0974 11.7463 11.2372 12.9779 6.95039 14.8456C6.25554 15.1213 5.88972 15.3934 5.85663 15.6581C5.80148 16.1048 6.36216 16.2812 7.12501 16.5221L7.44672 16.6232C8.19672 16.8676 9.20772 17.1526 9.73163 17.1636C10.2096 17.1746 10.7408 16.9798 11.3272 16.5754C15.3327 13.8713 17.4007 12.5055 17.5294 12.4761C17.6213 12.4541 17.75 12.4283 17.8346 12.5055C17.921 12.5809 17.9118 12.7261 17.9026 12.7647C17.8475 13.0018 15.6471 15.0459 14.5092 16.1048C14.1544 16.4356 13.9026 16.6691 13.8511 16.7224C13.7378 16.8383 13.6226 16.9522 13.5055 17.0643C12.807 17.7371 12.285 18.2408 13.5331 19.0644C14.1342 19.4614 14.6158 19.7868 15.0956 20.114C15.6177 20.4706 16.1397 20.8254 16.8162 21.2702C16.9871 21.3805 17.1526 21.5 17.3125 21.614C17.921 22.0478 18.4706 22.4375 19.1452 22.375C19.5386 22.3382 19.9449 21.9706 20.1507 20.8676C20.6379 18.2629 21.5956 12.6213 21.8162 10.2959C21.8297 10.1026 21.8216 9.90844 21.7923 9.71691C21.775 9.56235 21.7002 9.41997 21.5827 9.318C21.4155 9.20256 21.2161 9.14273 21.0129 9.14706C20.4614 9.15626 19.6103 9.4522 15.5276 11.1507Z" stroke="#E8E8E8" stroke-width="0.5"/>
</svg>
