<svg aria-hidden="true" style="position:absolute;width:0;height:0;overflow:hidden" xmlns="http://www.w3.org/2000/svg">
  <defs>
    <symbol id="icon-iconmonstr-arrow-down-circle-thin" viewBox="0 0 32 32">
      <path d="M32 16c0 8.831-7.169 16-16 16S0 24.831 0 16 7.169 0 16 0s16 7.169 16 16zm-1.333 0c0-8.095-6.572-14.667-14.667-14.667S1.333 7.905 1.333 16 7.905 30.667 16 30.667 30.667 24.095 30.667 16zm-15.334 6.437V6.666h1.333v15.768l4.996-6.139 1.004.888-6.667 8.149-6.667-8.135.983-.905 5.017 6.144z" />
    </symbol>
    <symbol id="icon-paint-format" viewBox="0 0 32 32">
      <path d="M32 18V6h-6V4c0-1.1-.9-2-2-2H2C.9 2 0 2.9 0 4v6c0 1.1.9 2 2 2h22c1.1 0 2-.9 2-2V8h4v8H12v4h-1a1 1 0 0 0-1 1v10a1 1 0 0 0 1 1h4a1 1 0 0 0 1-1V21a1 1 0 0 0-1-1h-1v-2h18zM24 6H2V4h22v2z" />
    </symbol>
    <symbol fill="none" id="telegram_icon" viewBox="0 0 32 32">
      <path d="M29.7059 15C29.7059 18.9002 28.1565 22.6407 25.3986 25.3986C22.6407 28.1565 18.9002 29.7059 15 29.7059C11.0998 29.7059 7.35927 28.1565 4.60139 25.3986C1.84349 22.6407 0.294128 18.9002 0.294128 15C0.294128 11.0998 1.84349 7.35926 4.60139 4.60138C7.35927 1.84348 11.0998 0.294117 15 0.294117C18.9002 0.294117 22.6407 1.84348 25.3986 4.60138C28.1565 7.35926 29.7059 11.0998 29.7059 15ZM15.5276 11.1507C14.0974 11.7463 11.2372 12.9779 6.95039 14.8456C6.25554 15.1213 5.88972 15.3934 5.85663 15.6581C5.80148 16.1048 6.36216 16.2812 7.12501 16.5221L7.44672 16.6232C8.19672 16.8676 9.20772 17.1526 9.73163 17.1636C10.2096 17.1746 10.7408 16.9798 11.3272 16.5754C15.3327 13.8713 17.4007 12.5055 17.5294 12.4761C17.6213 12.4541 17.75 12.4283 17.8346 12.5055C17.921 12.5809 17.9118 12.7261 17.9026 12.7647C17.8475 13.0018 15.6471 15.0459 14.5092 16.1048C14.1544 16.4356 13.9026 16.6691 13.8511 16.7224C13.7378 16.8383 13.6226 16.9522 13.5055 17.0643C12.807 17.7371 12.285 18.2408 13.5331 19.0644C14.1342 19.4614 14.6158 19.7868 15.0956 20.114C15.6177 20.4706 16.1397 20.8254 16.8162 21.2702C16.9871 21.3805 17.1526 21.5 17.3125 21.614C17.921 22.0478 18.4706 22.4375 19.1452 22.375C19.5386 22.3382 19.9449 21.9706 20.1507 20.8676C20.6379 18.2629 21.5956 12.6213 21.8162 10.2959C21.8297 10.1026 21.8216 9.90844 21.7923 9.71691C21.775 9.56235 21.7002 9.41997 21.5827 9.318C21.4155 9.20256 21.2161 9.14273 21.0129 9.14706C20.4614 9.15626 19.6103 9.4522 15.5276 11.1507Z" stroke="#E8E8E8" stroke-width="0.5"/>
    </symbol>
    <symbol id="icon-instagram" viewBox="0 0 32 32" fill="none" >
      <path d="M7 0.75H23C26.4518 0.75 29.25 3.54822 29.25 7V23C29.25 26.4518 26.4518 29.25 23 29.25H7C3.54822 29.25 0.75 26.4518 0.75 23V7C0.75 3.54822 3.54822 0.75 7 0.75Z" stroke="#E8E8E8" stroke-width="0.5"/>
      <path d="M20.6786 15C20.6786 18.1362 18.1362 20.6786 15 20.6786C11.8638 20.6786 9.32144 18.1362 9.32144 15C9.32144 11.8638 11.8638 9.32143 15 9.32143C18.1362 9.32143 20.6786 11.8638 20.6786 15Z" stroke="#E8E8E8" stroke-width="0.5"/>
      <path d="M23.5 7.35714C24.0523 7.35714 24.5 6.90942 24.5 6.35714C24.5 5.80485 24.0523 5.35714 23.5 5.35714C22.9477 5.35714 22.5 5.80485 22.5 6.35714C22.5 6.90942 22.9477 7.35714 23.5 7.35714Z" fill="#E8E8E8"/>
    </symbol>
    <symbol id="icon-arrow-left" viewBox="0 0 14 32">
      <path fill="none" stroke="#fff" style="stroke: var(--color1, #fff)" stroke-linejoin="miter" stroke-linecap="butt" stroke-miterlimit="4" stroke-width="0.5926" d="M13.037 1.185l-11.852 14.815 11.852 14.815"></path>
    </symbol>
    <symbol id="icon-dot-single" viewBox="0 0 20 20">
      <path d="M7.8 10a2.2 2.2 0 0 0 4.4 0 2.2 2.2 0 0 0-4.4 0z" />
    </symbol>
    <symbol id="2">
      <svg width="357" height="299" fill="none" xmlns="http://www.w3.org/2000/svg">
        <path opacity=".1" d="M.587 212.032C1.783 173.445 30.492 130.486 76.06 92.21 121.618 53.943 183.972 20.407 252.324.69 320.675-19.03 382.057-21.19 426.043-8.753c43.995 12.439 70.535 39.459 69.339 78.046-1.196 38.587-29.906 81.546-75.473 119.822-45.558 38.268-107.913 71.804-176.264 91.522-68.351 19.718-129.733 21.877-173.72 9.441C25.932 277.64-.608 250.619.588 212.032Z" stroke="#1C1C1C" stroke-width=".5" />
      </svg>
    </symbol>
  </defs>
</svg>

<svg width="40" height="40" viewBox="0 0 40 40" fill="none" xmlns="http://www.w3.org/2000/svg">

</svg>
